<?xml version="1.0" encoding="UTF-8" standalone="no"?>
<!-- Created with Inkscape (http://www.inkscape.org/) -->

<svg
   width="927"
   height="927"
   viewBox="0 0 245.26875 245.26875"
   version="1.1"
   id="svg1"
   xml:space="preserve"
   inkscape:version="1.3.2 (091e20ef0f, 2023-11-25)"
   sodipodi:docname="logo.svg"
   xmlns:inkscape="http://www.inkscape.org/namespaces/inkscape"
   xmlns:sodipodi="http://sodipodi.sourceforge.net/DTD/sodipodi-0.dtd"
   xmlns:xlink="http://www.w3.org/1999/xlink"
   xmlns="http://www.w3.org/2000/svg"
   xmlns:svg="http://www.w3.org/2000/svg"><sodipodi:namedview
     id="namedview1"
     pagecolor="#ffffff"
     bordercolor="#000000"
     borderopacity="0.25"
     inkscape:showpageshadow="2"
     inkscape:pageopacity="0.0"
     inkscape:pagecheckerboard="true"
     inkscape:deskcolor="#d1d1d1"
     inkscape:document-units="mm"
     inkscape:zoom="0.93395141"
     inkscape:cx="471.65195"
     inkscape:cy="387.60046"
     inkscape:window-width="2554"
     inkscape:window-height="1410"
     inkscape:window-x="0"
     inkscape:window-y="24"
     inkscape:window-maximized="0"
     inkscape:current-layer="layer2"
     showgrid="false" /><defs
     id="defs1"><linearGradient
       id="linearGradient43"
       inkscape:collect="always"><stop
         style="stop-color:#fca10a;stop-opacity:1;"
         offset="0"
         id="stop43" /><stop
         style="stop-color:#fc3424;stop-opacity:1;"
         offset="1"
         id="stop44" /></linearGradient><linearGradient
       id="linearGradient40"
       inkscape:collect="always"><stop
         style="stop-color:#fdbc09;stop-opacity:1;"
         offset="0"
         id="stop40" /><stop
         style="stop-color:#fd4b20;stop-opacity:1;"
         offset="1"
         id="stop41" /></linearGradient><linearGradient
       inkscape:collect="always"
       xlink:href="#linearGradient40"
       id="linearGradient41"
       x1="52.108448"
       y1="130.31323"
       x2="191.06432"
       y2="130.31323"
       gradientUnits="userSpaceOnUse" /><linearGradient
       inkscape:collect="always"
       xlink:href="#linearGradient43"
       id="linearGradient44"
       x1="13.641474"
       y1="130.08768"
       x2="223.17236"
       y2="130.08768"
       gradientUnits="userSpaceOnUse" /></defs><g
     inkscape:groupmode="layer"
     id="layer2"
     inkscape:label="Vector"
     style="display:inline"><path
       id="path31"
       style="display:inline;fill:#368c34"
       inkscape:label="leaf dark green"
       d="m 111.06055,1.2695312 c -4.18095,-0.023246 -8.29496,1.0245802 -12.159968,2.5548233 -0.996624,0.4373277 -2.146817,1.1231053 -2.149121,2.3592845 -0.04034,1.710838 0.478897,3.3784367 0.755,5.055812 1.448235,7.063057 3.708869,13.957825 6.710339,20.512502 0.53049,2.045458 1.64455,3.869697 2.56054,5.755859 0.81435,1.165631 1.76073,2.239316 2.54335,3.433464 3.71289,5.34203 8.2709,10.064763 13.22668,14.263859 4.40215,3.611803 9.03942,7.068359 14.32009,9.29029 4.62976,1.994977 9.5354,3.243186 14.45481,4.014341 2.04742,0.45296 4.33805,0.341001 6.08446,1.670713 6.10479,3.904441 11.99767,8.347751 18.8982,10.782076 3.03137,1.078319 6.06236,1.776418 9.27905,2.023773 2.95032,0.221526 6.16929,0.04014 9.17366,-0.544383 5.17717,-1.076418 9.7939,-3.778677 14.49192,-6.078737 1.73303,-1.043761 3.30802,-2.311228 4.84355,-3.589745 1.51259,-1.381998 2.72027,-3.052938 4.19702,-4.47148 4.65351,-4.696807 8.53798,-10.148419 11.34118,-16.150099 2.28292,-4.571693 4.22172,-9.303227 5.43411,-14.273888 0.78456,-2.941333 1.65726,-5.891805 1.9741,-8.924384 -0.28339,-1.329673 -1.731,-1.849173 -2.72604,-2.566306 -3.80337,-2.219295 -7.97961,-3.745486 -12.16114,-4.934181 -4.28161,-1.177439 -8.63359,-1.715607 -13.0523,-1.643464 -4.73612,-0.04016 -9.482,0.09217 -14.06702,1.4553 -1.97538,0.564888 -3.90992,1.261286 -5.86114,1.903008 -2.49159,-2.822901 -5.18112,-5.62014 -8.64662,-7.231535 -1.79698,-0.934711 -3.59669,-1.954949 -5.60338,-2.385653 -1.4878,0.157002 -2.36935,1.547737 -3.4989,2.368085 -5.7319,5.097062 -11.21178,10.540454 -16.56277,16.0631 -1.47871,1.572778 -2.86945,3.236218 -4.37193,4.779753 -0.60995,0.433577 -1.16363,-0.284049 -1.2029,-0.862905 -0.84138,-3.446117 -1.37873,-6.986782 -2.67023,-10.292639 -2.21697,-6.123839 -6.09225,-11.590799 -10.98234,-15.8737531 -2.8107,-2.4641215 -6.11789,-4.536447 -9.60322,-6.0105113 -2.14224,-0.9603941 -4.22795,-1.6357568 -6.56865,-2.055895 -2.7073,-0.4574498 -5.61949,-0.4128181 -8.40039,-0.3964844 z" /><path
       id="path15"
       style="display:inline;fill:#4db742"
       inkscape:label="leaf light green"
       d="m 112.72645,7.1969767 c -1.33906,0.013979 -2.67672,0.075591 -4.00957,0.2072225 -1.69145,0.2291418 -3.44434,0.3510093 -5.03845,0.9963216 -0.79275,0.5873094 -0.34952,1.7342982 -0.24082,2.5450642 2.20266,10.010255 6.35394,19.712825 12.63954,27.793136 3.08446,3.767093 6.54868,7.219411 10.18646,10.450525 0.22841,0.214912 2.13967,2.398254 1.72562,1.337837 l 8.91886,-1.121101 c 0.10496,0.360615 0.64772,0.06383 0.87885,-0.773808 0.48489,-2.001469 0.53494,-4.133881 0.6935,-6.147945 0.2065,-3.840291 0.0592,-7.734558 -0.86352,-11.389486 -1.72761,-6.239249 -4.68038,-12.215134 -8.9948,-17.076994 -2.29211,-2.550828 -4.99153,-4.9902821 -8.34884,-5.9768961 -2.39295,-0.6972003 -5.02958,-0.8023052 -7.54683,-0.8438762 z m 63.52973,11.7063783 c -0.79914,0.630677 -4.44942,1.918478 -5.21889,2.590963 -8.49155,7.607922 -15.30349,15.457714 -21.84913,24.339835 -2.80921,3.857656 -5.86738,7.88726 -7.98068,12.198386 -0.12572,0.492914 0.6193,3.215735 0.9232,3.712862 1.6155,1.152632 3.35145,2.19119 5.25528,2.776261 0.55818,0.328614 1.41964,-1.996897 1.57497,-2.428811 1.15333,-3.701532 2.90055,-7.201711 5.05654,-10.420036 3.40206,-5.21869 7.74179,-9.731297 12.16463,-14.083895 3.98062,-4.024769 8.20959,-7.787692 12.34602,-11.648385 0.79424,-0.832097 3.18321,-2.839993 3.82689,-3.791699 -1.55197,-1.456743 -4.11767,-2.498302 -6.09883,-3.245481 z m 30.90347,5.684504 c -1.52436,0.02698 -2.98235,0.0824 -4.49378,0.229443 -4.78368,0.448429 -9.5402,1.611342 -14.06374,3.392558 -2.79228,0.951543 -5.2254,2.695524 -7.34115,4.719609 -5.91926,5.65859 -11.39829,11.761081 -16.72818,17.972546 -2.81456,3.360437 -5.68254,6.685181 -8.2982,10.204028 -0.21429,0.462902 -1.75757,2.3711 -1.24289,2.881418 1.12395,0.599723 2.91904,2.355161 3.9829,1.919579 2.81727,3.851114 5.64877,0.959324 10.19062,2.519324 0.97622,0.877656 3.81835,2.149316 4.95696,2.790994 1.50702,0.856642 3.25503,1.033385 4.95628,0.960665 2.81139,-0.05339 5.46779,-0.585976 8.09512,-1.470711 6.33578,-2.19045 12.08304,-5.723222 17.21497,-9.975102 7.17212,-5.952731 12.97784,-13.755147 15.47864,-22.792924 0.81334,-3.233944 0.91255,-7.740924 1.05647,-11.076114 0.18722,-0.780734 -0.77133,-0.781973 -1.27537,-0.93741 -4.05855,-0.989758 -8.31303,-1.342003 -12.48865,-1.337903 z"
       sodipodi:nodetypes="ccccccccccccccccccccccccccccccccccccccccccc" /><path
       id="path38"
       style="display:inline;opacity:1;fill:url(#linearGradient41);stroke-width:0.209439;stroke-linecap:square"
       inkscape:label="gradient circle"
       d="m 121.58638,62.838025 a 69.477814,67.475311 0 0 0 -69.477933,67.475465 69.477814,67.475311 0 0 0 69.477933,67.47495 69.477814,67.475311 0 0 0 69.47793,-67.47495 69.477814,67.475311 0 0 0 -69.47793,-67.475465 z m -0.34727,30.825509 a 37.315758,37.107216 0 0 1 37.31607,37.107296 37.315758,37.107216 0 0 1 -37.31607,37.10678 37.315758,37.107216 0 0 1 -37.31555,-37.10678 37.315758,37.107216 0 0 1 37.31555,-37.107296 z" /><path
       id="path43"
       style="display:inline;fill:url(#linearGradient44);stroke-width:0.179035;stroke-linecap:square"
       d="m 80.849845,22.220349 c -1.323608,0.04259 -2.591115,0.480476 -3.836975,0.891418 -2.855309,1.022299 -5.505333,2.546134 -7.998478,4.258656 -2.170972,1.523336 -4.252351,3.202289 -6.033108,5.175269 -0.838039,0.957598 -1.656324,1.98234 -2.087616,3.194976 -0.207042,0.574902 -0.25069,1.217869 -0.02985,1.795941 0.400061,1.165934 0.944867,2.275708 1.449406,3.398668 2.535873,5.481995 5.184947,10.910962 7.695581,16.404749 0.463079,1.023863 0.91649,2.035699 1.331894,3.070071 0.13294,0.334881 0.248457,0.640683 0.369845,0.992082 0.173866,0.565039 0.410385,1.161904 0.286613,1.760889 -0.07124,0.360963 -0.391806,0.623935 -0.604097,0.868683 -2.616179,2.78838 -5.377357,5.420151 -8.02786,8.179242 -1.720739,1.794385 -3.437179,3.596076 -5.053645,5.485892 -0.918964,1.09457 -1.821159,2.208183 -2.828174,3.224066 -0.201602,0.156568 -0.492241,0.08969 -0.730131,0.071 -1.079907,-0.189084 -2.113732,-0.571106 -3.153031,-0.909899 -4.6594,-1.601081 -9.276136,-3.380854 -13.946039,-4.989521 -1.394571,-0.465479 -2.784989,-0.965835 -4.227838,-1.262253 -0.49153,-0.102404 -1.009777,-0.117194 -1.4868,0.06005 -1.129546,0.357881 -2.186101,0.967917 -3.047542,1.782794 -0.76916,0.790853 -1.377445,1.721152 -1.967481,2.648699 -1.529962,2.477865 -2.791144,5.113292 -3.906142,7.800747 -0.818694,2.022705 -1.57833,4.081664 -2.045103,6.217454 -0.217642,0.987097 -0.309971,2.006127 -0.243861,3.015361 0.06305,0.740381 0.435584,1.406475 0.8212,2.024465 0.512845,0.701217 1.301221,1.118494 2.018329,1.576517 2.317489,1.381125 4.686793,2.672205 7.035579,3.998765 1.836187,1.03093 3.671067,2.06031 5.476975,3.12479 1.360623,0.8198 2.748547,1.61307 3.98652,2.6148 0.400584,0.35232 0.862512,0.73949 0.959,1.29244 0.0051,0.95344 -0.09119,1.90422 -0.164909,2.85401 -0.09348,1.0571 -0.217522,2.1512 -0.305901,3.22421 -0.304194,3.54879 -0.49185,7.10632 -0.62647,10.66534 -0.110408,2.54172 -0.206057,5.09694 -0.354888,7.62542 -0.0461,0.6198 -0.08057,1.29096 -0.185454,1.92359 -0.03967,0.35108 -0.223266,0.70045 -0.561787,0.84317 -1.032531,0.52241 -2.137656,0.88058 -3.220477,1.28209 -4.192429,1.47556 -8.439269,2.88664 -12.656082,4.32629 -2.398142,0.82348 -4.803387,1.62641 -7.1918,2.47743 -0.958725,0.38922 -1.582011,1.32024 -1.848583,2.28993 -0.438487,1.54029 -0.260123,3.16489 -0.0352,4.72461 0.536276,3.73926 1.432968,7.41943 2.514234,11.03603 0.860296,2.80547 1.815286,5.59349 3.092781,8.23971 0.501508,0.98608 1.018543,1.99478 1.802747,2.79008 0.418435,0.40437 0.905953,0.78702 1.503538,0.85711 0.933999,0.12185 1.871785,-0.0714 2.790951,-0.22371 2.524737,-0.47547 5.020692,-1.08959 7.521656,-1.67366 5.303239,-1.24973 10.58881,-2.57858 15.918489,-3.71329 0.38227,-0.0696 0.729866,-0.16909 1.120232,-0.1934 0.581766,0.0349 0.989,0.51619 1.358564,0.91319 1.126136,1.32373 2.058308,2.79639 3.048577,4.22048 2.593951,3.79472 5.394995,7.45659 8.523732,10.82783 1.693389,1.84963 3.502975,3.58692 5.289031,5.34566 0.733489,0.74998 1.507932,1.4735 2.115342,2.3336 0.219413,0.29303 0.300825,0.67659 0.187613,1.02895 -0.296106,1.08718 -0.779687,2.11147 -1.221513,3.14482 -1.677749,3.75465 -3.461562,7.46058 -5.210055,11.18248 -1.134584,2.43041 -2.306106,4.84515 -3.361196,7.31179 -0.317164,0.79919 -0.701524,1.63686 -0.570391,2.51951 0.158806,1.23891 0.877078,2.31913 1.662009,3.25664 1.437627,1.67493 3.22081,3.01243 5.061633,4.21224 2.319856,1.47704 4.762402,2.75149 7.234235,3.95275 2.314379,1.1105 4.659016,2.1733 7.091367,3.00098 0.953252,0.31906 1.954496,0.60048 2.969774,0.48133 1.335108,-0.11844 2.568347,-0.88487 3.331159,-1.97708 0.717648,-1.09038 1.376643,-2.21901 2.066042,-3.32738 3.148869,-5.1375 6.238337,-10.31173 9.451395,-15.4098 0.585888,-0.9016 1.139459,-1.82915 1.805049,-2.67518 0.28879,-0.10952 0.62322,-0.0772 0.93191,-0.0889 1.53878,0.023 3.05477,0.30241 4.59129,0.50137 4.25823,0.54937 8.54268,0.86032 12.82782,1.10928 1.16422,0.0919 2.3421,0.1333 3.48313,0.39997 0.49969,0.10498 0.95351,0.43847 1.13828,0.92408 0.3846,0.97752 0.56251,2.02 0.78408,3.04283 0.84755,4.28281 1.55571,8.59183 2.36809,12.88099 0.29865,1.50079 0.55454,3.01782 1.03052,4.47545 0.23756,0.74014 0.64723,1.41971 1.19638,1.97044 0.96405,1.05888 2.10778,1.9927 3.46035,2.50185 0.73745,0.29466 1.51648,0.48999 2.31215,0.52162 1.90649,0.10802 3.81567,-0.076 5.70741,-0.30125 2.60622,-0.33799 5.20433,-0.80431 7.72535,-1.55636 1.10065,-0.32738 2.17606,-0.75671 3.15277,-1.36632 1.75093,-1.06913 3.35563,-2.37767 4.7725,-3.86043 0.51697,-0.55412 1.0225,-1.11884 1.53483,-1.67727 -0.0864,-1.38644 -0.13481,-2.77669 -0.32411,-4.15435 -0.26044,-2.17414 -0.62463,-4.33356 -0.9647,-6.49617 -0.13938,-0.93607 -0.2599,-1.87495 -0.35708,-2.81636 -0.0396,-0.41926 -0.084,-0.89677 -0.11283,-1.33962 -0.1327,-2.12465 -0.12425,-4.31203 0.55197,-6.35364 0.43197,-1.32164 1.20541,-2.5082 2.14738,-3.5227 0.33116,-0.40303 0.70784,-0.78918 0.92127,-1.27113 0.0959,-0.18986 0.31902,-0.29619 0.48056,-0.4343 1.27613,-0.90645 2.65639,-1.74409 3.98674,-2.60693 3.8469,-2.47204 7.45993,-5.2927 10.8804,-8.3237 2.13404,-1.86961 4.18352,-3.83243 6.249,-5.77681 0.692,-0.62808 1.35925,-1.29648 2.14251,-1.81219 0.27893,-0.21801 0.63886,-0.0772 0.94987,-0.028 1.05106,0.23543 2.05077,0.54524 3.08154,0.84609 6.05408,1.82492 12.07934,3.74345 18.12211,5.60521 1.6831,0.51432 3.35968,1.05141 5.05221,1.53404 0.23657,-0.0653 0.42936,-0.22635 0.5463,-0.44349 0.70564,-1.1834 1.30163,-2.42825 1.92371,-3.65668 1.20481,-2.44712 2.40309,-4.89965 3.47733,-7.40755 0.7802,-1.98245 1.41334,-4.02406 1.89167,-6.1002 0.3241,-1.41237 0.54482,-2.85014 0.59923,-4.29943 0.0306,-0.51195 0.0613,-1.0239 0.0918,-1.53585 -0.51175,-0.71985 -0.96853,-1.48662 -1.59989,-2.1122 -0.75872,-0.8053 -1.61425,-1.50878 -2.47814,-2.19675 -1.11241,-0.90675 -2.18197,-1.86396 -3.24652,-2.82577 -1.33761,-1.19538 -2.99523,-1.92689 -4.59347,-2.69923 -1.59822,-0.76867 -3.20806,-1.51717 -4.77418,-2.34991 -0.71521,-0.41882 -1.49189,-0.82121 -1.98057,-1.51505 -0.43513,-0.67057 -0.3134,-1.51307 -0.2005,-2.25929 0.22324,-1.22827 0.56178,-2.43229 0.78589,-3.66066 0.91469,-4.70565 1.3629,-9.48859 1.63883,-14.27003 0.24013,-4.23381 0.29965,-8.47522 0.28792,-12.71519 6.4e-4,-0.59025 0.001,-1.1805 0.002,-1.77075 0.45519,-0.42172 0.89085,-0.89282 1.47988,-1.12803 1.28827,-0.56013 2.62959,-0.98582 3.95051,-1.4606 3.52066,-1.23655 7.0493,-2.45586 10.52423,-3.81713 0.53509,-0.23085 1.10116,-0.41335 1.58952,-0.73643 0.32155,-0.30269 0.46266,-0.74306 0.65528,-1.131 0.57415,-1.32243 1.09938,-2.67006 1.50377,-4.05474 0.47041,-1.73707 0.31738,-3.56359 0.036,-5.3182 -0.40775,-2.51207 -1.00125,-4.989141 -1.58419,-7.464964 -0.66754,-2.737588 -1.36976,-5.47959 -2.42109,-8.099277 -0.74428,-1.818867 -1.71332,-3.616629 -3.22956,-4.90892 -0.64526,-0.560488 -1.49524,-0.876652 -2.35201,-0.843701 -1.29022,0.04384 -2.51821,0.50015 -3.71765,0.938842 -2.44422,0.932768 -4.82112,2.054291 -7.2269,3.050866 -2.21634,0.915273 -4.47667,1.817642 -6.87279,2.117849 -2.1185,0.289507 -4.26569,0.209113 -6.3938,0.0877 -1.48386,-0.09265 -2.94314,-0.233558 -4.42329,-0.414348 -2.12227,-0.262485 -4.28065,-0.604086 -6.38255,-1.08662 -1.23303,-0.291619 -2.46519,-0.624975 -3.61486,-1.167247 -0.38675,-0.143168 -2.22147,-2.000898 -2.64311,-1.983579 -0.12924,0.0327 -6.76658,-2.39072 -3.19966,0.0059 -0.1557,0.214947 1.3263,1.257744 1.47417,1.473689 0.60251,0.909109 4.21059,2.741312 4.88866,3.591567 1.69543,2.052269 3.28886,4.239331 4.76847,6.475028 2.07358,3.184208 3.8607,6.553745 5.35632,10.046445 0.1124,0.2732 0.25935,0.61581 0.37211,0.8926 1.70378,4.1575 2.97465,8.48946 3.82557,12.90036 0.0906,0.48413 0.19136,1.02271 0.27688,1.52931 0.43262,2.35705 0.54335,4.75683 0.62957,7.14703 0.066,2.18345 0.0764,4.40605 0.0193,6.60509 -0.0246,0.96414 -0.0665,1.96024 -0.12914,2.90972 -0.0692,1.18247 -0.20889,2.35956 -0.40903,3.5269 -0.0595,0.34805 -0.12757,0.75892 -0.19381,1.1309 -0.13825,0.76421 -0.28622,1.53984 -0.44432,2.2788 -1.2932,6.19407 -3.42692,12.22198 -6.43117,17.79543 -1.45958,2.72313 -3.1226,5.33564 -4.94392,7.83083 -0.26148,0.35055 -0.55342,0.75104 -0.83495,1.11461 -2.64833,3.47606 -5.633,6.69503 -8.89572,9.60205 -0.27746,0.24075 -0.59732,0.52849 -0.89661,0.78135 -6.63483,5.70718 -14.39193,10.08692 -22.67571,12.89942 -1.02593,0.35183 -2.0958,0.6849 -3.11442,0.98396 -4.08057,1.18011 -8.26197,2.0168 -12.48479,2.47923 -1.52085,0.14306 -3.0578,0.20882 -4.56935,0.2532 -2.26078,0.0628 -4.52346,0.0664 -6.7842,-8.1e-4 -0.32109,-0.0129 -0.72809,-0.0256 -1.04361,-0.0418 -1.37899,-0.0496 -2.7498,-0.21235 -4.11576,-0.40055 -0.51448,-0.0743 -1.08251,-0.15512 -1.61609,-0.24134 -0.86934,-0.13789 -1.74072,-0.29132 -2.58786,-0.45607 -0.91784,-0.17639 -1.83929,-0.37203 -2.73247,-0.58064 -0.89438,-0.20652 -1.79308,-0.43142 -2.66121,-0.66754 -6.195861,-1.67282 -12.179495,-4.16926 -17.660892,-7.51518 -2.255353,-1.36778 -4.434782,-2.86036 -6.525464,-4.46861 -0.245192,-0.1939 -0.567764,-0.44288 -0.814789,-0.63833 -6.359443,-5.04755 -11.826433,-11.2278 -15.993308,-18.19973 -3.413543,-5.69794 -5.954702,-11.91434 -7.526335,-18.36742 -0.08888,-0.38591 -0.199832,-0.82831 -0.287653,-1.23864 -0.413011,-1.88317 -0.779568,-3.77996 -1.003493,-5.69577 -0.188714,-1.69844 -0.28766,-3.38822 -0.354062,-5.10018 -0.08189,-2.17026 -0.09661,-4.37776 -0.0339,-6.56613 0.02042,-0.67083 0.0534,-1.4142 0.09729,-2.08743 0.06467,-1.0797 0.191931,-2.15337 0.333679,-3.21173 0.32594,-2.43647 0.773777,-4.85725 1.363374,-7.24396 0.108106,-0.42933 0.241874,-0.94424 0.356568,-1.37098 1.410521,-5.18447 3.537117,-10.15838 6.137275,-14.854313 0.938271,-1.689034 1.979576,-3.375338 3.039425,-4.947574 3.888108,-5.75796 8.683726,-10.900918 14.158309,-15.178918 2.52245,-1.97399 5.221084,-3.790532 8.011755,-5.395261 4.628238,-2.656163 9.587461,-4.824421 14.707221,-6.394278 3.52941,-1.085435 7.20837,-1.895661 10.86644,-2.400187 2.02649,-0.280222 4.07321,-0.471453 6.10296,-0.575717 1.61736,-0.08378 3.22553,-0.112604 4.85234,-0.09099 2.13109,0.02917 4.27014,0.147744 6.40223,0.351327 1.13601,0.1099 2.29611,0.241716 3.44805,0.363847 -0.36565,-0.606859 -0.69804,-1.235366 -1.08469,-1.828567 -0.58679,-0.721365 -1.33748,-1.287692 -2.0766,-1.843196 -2.25004,-1.569108 -4.43428,-3.233891 -6.52242,-5.013483 -4.79798,-4.083728 -9.1798,-8.670333 -12.94381,-13.726718 -0.88061,-1.169776 -1.66876,-2.414442 -2.65414,-3.5017 -0.18287,-0.223546 -0.46713,-0.329779 -0.75225,-0.289663 -1.72584,0.118967 -3.4053,0.580533 -5.12374,0.763603 -0.74597,0.06741 -1.531777,0.169783 -2.252716,-0.08998 C 98.692039,38.106827 98.298347,37.71273 97.86211,37.300973 94.160136,33.721798 90.664943,29.93764 87.027216,26.294428 c -0.937514,-0.928466 -1.853049,-1.881811 -2.838866,-2.75961 -0.827063,-0.676591 -1.808527,-1.242903 -2.898706,-1.302827 -0.146124,-0.01101 -0.292729,-0.01382 -0.439221,-0.01163 z"
       sodipodi:nodetypes="cccccccccccccccccccccccccccccccccccccccccccccccccccccccccccccccccccccccccccccccccccccccccccccccccccccccccccccccccccccccccccccccccccccccccccccccccccccccccccccccccccccccccccccccccccccccccccccccccccccccccccc"
       inkscape:label="cog background" /><path
       style="display:inline;fill:#d12929;fill-opacity:1;stroke-width:0.217752;stroke-linecap:square"
       d="m 127.92597,57.40555 3.73738,5.759809 c 0,0 0.24147,1.847726 8.00996,5.950977 7.76849,4.103254 16.75869,4.009342 20.05629,6.305621 3.29759,2.296279 11.90406,8.782878 15.54319,10.268977 3.63912,1.486098 17.23361,3.558333 22.85522,1.813787 5.6216,-1.744543 12.52899,-5.948066 15.57273,-5.731115 3.04374,0.21695 5.41561,5.711325 6.90501,12.236621 1.48941,6.525293 3.17263,11.527413 1.33594,15.667043 -1.8367,4.13963 -2.28499,6.68664 -2.28499,6.68664 l 10.09921,-5.94131 0.16097,-8.42264 -2.99818,-17.152113 -7.39796,-8.233489 -8.99039,-3.294079 -21.79995,6.958862 -28.12475,-11.404629 -25.33411,-7.569827 z"
       id="path35"
       inkscape:label="red shade top" /><path
       style="display:inline;fill:#d12929;fill-opacity:1;stroke-width:0.217752;stroke-linecap:square"
       d="m 208.99528,159.072 c -0.0419,0.0277 4.33346,4.45893 4.33346,4.45893 0,0 4.73074,2.95557 5.46235,5.39398 0.7316,2.4384 -1.61953,9.93308 -2.74706,12.55408 -1.12753,2.62101 -5.63655,11.40411 -5.63655,11.40411 l 4.0541,2.5134 13.6258,-25.07779 -7.90474,-8.56491 z"
       id="path36"
       inkscape:label="red shade right" /><path
       style="display:inline;fill:#df3626;fill-opacity:1;stroke-width:0.217752;stroke-linecap:square"
       d="m 160.06767,203.21955 c 0,0 -1.99226,0.58282 -3.54657,4.20376 -1.55431,3.62093 -0.51128,9.73412 -0.3686,10.66677 0.14269,0.93264 1.86882,9.42512 1.25661,10.90985 -0.61222,1.48472 -4.6163,4.90483 -7.04775,6.04645 -2.43145,1.14161 -9.43793,2.40791 -14.20568,2.56577 -1.54206,0.0511 -4.17424,-0.52763 -5.67968,-2.05215 -1.4018,-1.41956 -3.80791,-4.35707 -3.80791,-4.35707 l 2.76272,9.23119 26.76577,0.0118 10.0613,-9.54856 z"
       id="path37"
       sodipodi:nodetypes="cssssssccccc"
       inkscape:label="red shade bottom" /><ellipse
       style="display:inline;fill:#dc3327;fill-opacity:1;stroke-width:0.217752;stroke-linecap:square"
       id="path41"
       cx="121.9264"
       cy="131.43794"
       rx="17.332268"
       ry="16.292019"
       inkscape:label="center circle shade" /><path
       style="display:inline;opacity:1;mix-blend-mode:normal;fill:#2d2f32"
       d="m 136.56297,244.21968 c -3.40208,-0.48001 -5.75909,-1.40053 -8.14413,-3.18064 -3.15712,-2.35637 -4.27957,-5.6477 -6.44947,-18.9117 -0.45232,-2.76489 -0.9259,-5.27586 -1.0524,-5.57994 -0.21485,-0.51644 -0.50359,-0.56414 -4.3843,-0.72427 -2.28485,-0.0943 -5.71915,-0.37357 -7.63177,-0.62063 -5.68294,-0.7341 -5.03218,-0.95741 -7.07264,2.42693 -0.96511,1.60073 -3.398861,5.69103 -5.408351,9.08956 -4.1561,7.02899 -5.45143,8.62777 -8.01114,9.88791 -1.60775,0.7915 -1.9657,0.86472 -4.14647,0.84826 -8.54623,-0.0645 -25.24597,-8.94153 -28.56732,-15.18539 -0.97298,-1.82912 -1.23523,-4.84823 -0.59187,-6.81396 0.22788,-0.69628 2.50348,-5.55222 5.05688,-10.79097 2.55341,-5.23875 4.6442,-9.71774 4.64622,-9.95332 0.002,-0.23559 -1.88105,-2.31918 -4.18457,-4.63021 -4.6691,-4.68432 -7.04415,-7.54727 -9.89267,-11.92486 -1.05952,-1.62826 -2.05018,-3.0139 -2.20148,-3.07919 -0.1513,-0.0653 -3.48505,0.64199 -7.40833,1.57175 -3.92329,0.92977 -9.09779,2.11651 -11.49888,2.63721 -9.23267,2.0022 -12.065291,0.89068 -15.4438,-6.06012 -2.86528,-5.89492 -4.788341,-12.42 -5.862061,-19.89042 -0.49244,-3.42618 -0.48921,-6.0521 0.01,-7.73148 0.54935,-1.84985 2.316801,-3.76554 4.283511,-4.64278 0.84409,-0.3765 5.94002,-2.07598 11.32429,-3.77663 5.38428,-1.70064 9.93842,-3.21207 10.12032,-3.35872 0.22077,-0.17799 0.33114,-1.06956 0.33196,-2.68164 0.002,-3.77166 0.48481,-10.73786 1.06439,-15.35497 0.45735,-3.64333 0.47843,-4.2831 0.15697,-4.7625 -0.21109,-0.3148 -2.23914,-1.4036 -4.69957,-2.52306 -7.88543,-3.58775 -11.72349,-5.52674 -12.849931,-6.49179 -1.3263,-1.13628 -2.617089,-3.662011 -2.858499,-5.593341 -0.6095,-4.87601 4.17845,-17.61689 8.71157,-23.181762 2.10016,-2.57817 5.67687,-4.43571 8.54099,-4.43571 1.83318,0 3.52875,0.53052 12.23616,3.82852 4.42989,1.677862 8.1973,3.050652 8.37203,3.050652 0.17472,0 1.19058,-1.0418 2.25746,-2.315112 1.95014,-2.32747 6.86125,-7.373 9.40666,-9.66412 0.75217,-0.67703 1.44184,-1.35111 1.5326,-1.49796 0.0908,-0.14685 -2.3106,-5.14126 -5.33634,-11.098686 l -5.50135,-10.831681 0.01,-2.602994 c 0.009,-2.330882 0.0883,-2.755118 0.76104,-4.058202 2.9062,-5.629287 11.52329,-11.981541 19.81174,-14.604606 2.23709,-0.707979 3.13234,-0.85634 5.21433,-0.864123 3.82156,-0.01429 4.0327,0.138894 12.1107,8.786301 4.75544,5.090641 6.902701,7.211161 7.301041,7.210119 0.31037,-8.11e-4 0.98102,-0.108319 1.49035,-0.238905 0.50932,-0.130586 1.25346,-0.310784 1.65364,-0.40044 0.40018,-0.08966 0.72761,-0.326146 0.72761,-0.525534 0,-0.199388 -0.58978,-1.686169 -1.31062,-3.303959 -1.51016,-3.389277 -3.350586,-8.568092 -4.335031,-12.198436 -0.86404,-3.186367 -2.28653,-10.1916246 -2.28956,-11.2752566 -0.003,-1.235844 0.84387,-2.08094 2.97395,-2.966154 4.411331,-1.83326 9.027021,-2.55221507 15.140891,-2.35839607 5.9829,0.18966797 8.37516,0.77480507 13.76515,3.36690007 11.03205,5.305416 18.43898,15.5460776 20.87377,28.8596266 0.45058,2.463847 0.7006,3.290988 0.99473,3.290988 0.21609,0 1.29196,-1.071562 2.39082,-2.38125 5.47755,-6.528421 20.12911,-20.445429 22.0257,-20.921442 0.43154,-0.10831 1.40338,0.16606 2.96696,0.83763 4.88008,2.096038 8.50235,4.558632 10.48886,7.130843 0.61233,0.792868 1.29889,1.442031 1.5257,1.442586 0.22681,5.54e-4 1.35791,-0.343426 2.51354,-0.764402 7.26889,-2.647901 18.45487,-3.180368 27.76575,-1.321682 7.31093,1.459445 17.25279,6.013057 17.71412,8.113495 0.3821,1.739695 -2.77559,13.316053 -5.21237,19.109014 -3.64943,8.675756 -7.58823,14.726906 -13.62308,20.929006 -1.78436,1.83382 -3.24429,3.46634 -3.24429,3.62782 0,0.16149 0.50601,0.42817 1.12448,0.59264 4.46606,1.18764 8.037,4.976942 11.58091,12.289082 2.71434,5.6005 4.04121,10.39994 4.77299,17.264521 0.62571,5.86947 -0.78096,9.02241 -5.38238,12.06418 -3.63183,2.40083 -8.373,4.50484 -15.90679,7.05903 l -3.6785,1.24712 -0.0427,8.17008 c -0.0443,8.47938 -0.27306,11.19581 -1.49586,17.76056 -0.30487,1.63675 -0.48819,3.14821 -0.40738,3.3588 0.0808,0.2106 4.05249,2.34637 8.82596,4.74616 9.42934,4.74048 11.55212,5.97997 12.60459,7.35984 3.27016,4.28739 2.72592,10.69418 -1.67329,19.69815 -1.73564,3.55238 -5.06373,8.68926 -7.09313,10.9482 -2.43885,2.71471 -5.05964,3.57457 -8.94743,2.93561 -1.00218,-0.16471 -7.02786,-1.98637 -13.39041,-4.04812 l -11.56827,-3.74864 -2.45464,2.36579 c -4.80348,4.6296 -10.00058,8.71164 -14.81906,11.63956 -1.41616,0.86052 -2.62155,1.68406 -2.67865,1.8301 -0.0571,0.14603 0.35277,3.1226 0.91084,6.61458 2.77545,17.36677 2.86544,18.8503 1.31945,21.75064 -2.52469,4.73641 -9.04399,8.14232 -18.67184,9.75482 -2.89568,0.48497 -9.70159,0.69816 -11.98832,0.37552 z m 9.91375,-4.89397 c 9.49763,-1.17583 16.49355,-5.42033 16.49355,-10.00682 0,-0.57141 -0.41438,-3.49483 -0.92084,-6.49649 -2.7848,-16.50464 -3.07924,-18.83005 -2.51721,-19.88021 0.14636,-0.27348 1.36828,-1.1459 2.71537,-1.9387 5.69204,-3.34995 12.06667,-8.42261 17.65205,-14.04676 2.70766,-2.72647 3.44094,-3.32626 4.06655,-3.32626 0.41977,0 6.37468,1.77561 13.23313,3.9458 15.27914,4.83472 15.4026,4.87043 16.17198,4.67733 1.62129,-0.40692 4.24269,-3.90851 6.93203,-9.2596 2.22475,-4.42668 3.5745,-8.71912 3.71017,-11.79895 0.16709,-3.79317 0.37192,-3.59212 -7.6674,-7.52611 -3.67228,-1.797 -8.52234,-4.12107 -10.77791,-5.16459 -5.88123,-2.7209 -6.23893,-3.17842 -5.31475,-6.79804 1.57916,-6.18499 2.40936,-14.47847 2.4128,-24.10337 l 0.003,-7.2119 0.72209,-0.76878 c 0.57268,-0.60973 1.80251,-1.12846 5.94413,-2.50717 2.87213,-0.9561 7.5751,-2.66184 10.45104,-3.79053 6.30355,-2.47389 7.08947,-3.07774 8.0282,-6.16832 0.49948,-1.6444 0.55974,-2.32275 0.44262,-4.98187 -0.45973,-10.437161 -6.09347,-22.068521 -12.03852,-24.854571 -1.28122,-0.60043 -1.88012,-0.71329 -3.78498,-0.71329 h -2.26293 l -4.61624,2.30574 c -6.86348,3.4282 -10.15402,4.3869 -15.86103,4.62112 -3.7751,0.15493 -7.18686,-0.27161 -10.98021,-1.37276 -5.25401,-1.52515 -9.82679,-3.89913 -17.43513,-9.051512 -2.4588,-1.66511 -4.75757,-3.13659 -5.10837,-3.26996 -0.3508,-0.13338 -2.26812,-0.49058 -4.2607,-0.79379 -9.68945,-1.47441 -17.05676,-4.29172 -23.73122,-9.07495 -8.14301,-5.835672 -14.7249,-12.412673 -19.56072,-19.546174 -0.86299,-1.273026 -1.69666,-2.314592 -1.85261,-2.314592 -0.15595,0 -1.53322,0.238125 -3.06061,0.529167 -4.679321,0.891634 -4.396001,0.979081 -7.500821,-2.315105 -4.69025,-4.976319 -11.3855,-11.808189 -12.31373,-12.564996 -1.45988,-1.190267 -2.62241,-1.413801 -4.69402,-0.902578 -3.99258,0.985266 -8.65456,3.504656 -12.6631,6.843286 -3.64656,3.037149 -5.42871,5.384322 -5.42497,7.144957 0.002,0.698155 0.6961,2.230126 6.84854,15.104353 3.18893,6.672952 4.52726,9.746782 4.52726,10.398032 0,1.29347 -0.55517,2.22858 -2.03371,3.42553 -3.35033,2.71224 -9.62268,9.271662 -12.8901,13.480062 -1.40114,1.80465 -1.94869,2.24934 -2.76644,2.24673 -0.38406,-0.001 -3.13907,-0.90476 -6.12225,-2.00785 -11.25643,-4.16227 -14.84984,-5.39825 -15.69446,-5.39825 -0.47872,0 -1.49581,0.31166 -2.26022,0.69258 -1.085,0.54068 -1.67408,1.09734 -2.68579,2.53795 -3.6129,5.14458 -7.48835,15.07488 -6.98234,17.89125 0.21274,1.18405 0.7543,2.15349 1.51754,2.71653 0.31514,0.23248 3.8472,2.243211 7.84902,4.468291 11.01834,6.12637 11.29559,6.35117 11.02848,8.94197 -0.0858,0.83209 -0.33903,3.29882 -0.56277,5.48164 -0.36474,3.55837 -0.53871,7.31696 -0.77436,16.7294 -0.0778,3.10592 -0.27559,3.65543 -1.56427,4.34511 -0.26278,0.14064 -5.37523,1.85621 -11.36099,3.81238 -5.98576,1.95617 -11.16535,3.74154 -11.51019,3.9675 -1.08213,0.70903 -1.65799,1.95752 -1.65908,3.59692 -0.002,3.47078 1.8631,11.83432 3.882209,17.40598 2.291001,6.32191 3.601031,8.21875 5.676201,8.21875 0.57867,0 6.25477,-1.25527 12.61355,-2.78948 6.35879,-1.53421 12.10733,-2.91934 12.77454,-3.07807 1.77359,-0.42193 2.48142,0.018 4.11943,2.56026 4.70269,7.2988 8.94738,12.49458 14.50559,17.75577 3.39291,3.21161 3.5775,3.43911 3.5775,4.40935 0,0.78483 -1.16835,3.45297 -5.01791,11.45931 -2.75985,5.73996 -5.14421,10.90531 -5.29857,11.47856 -0.7082,2.63006 1.03866,5.0885 5.93042,8.34619 4.65343,3.09896 13.49155,7.2036 16.58744,7.70361 1.22926,0.19853 3.12799,-0.61436 3.86416,-1.65434 0.29626,-0.41852 3.29676,-5.34486 6.66779,-10.94741 3.37102,-5.60255 6.390621,-10.40723 6.710221,-10.67705 0.65116,-0.54975 0.56537,-0.55396 6.80436,0.33354 2.11005,0.30015 6.51537,0.68982 9.78957,0.86592 5.86341,0.31537 5.96359,0.33057 6.64727,1.00861 0.82925,0.82242 0.83657,0.85416 2.89178,12.52469 1.78063,10.11139 2.2025,11.50068 3.88001,12.77754 3.16246,2.40717 8.73115,3.23209 15.86031,2.34949 z m -28.22103,-70.54393 c -13.71215,-0.93932 -25.884121,-9.22441 -32.021551,-21.7961 -2.73667,-5.60571 -3.79192,-10.2076 -3.79192,-16.53646 0,-4.71598 0.43492,-7.5211 1.82815,-11.79107 3.65512,-11.20224 12.87941,-20.260751 24.601251,-24.159131 10.06963,-3.34891 21.43081,-2.60808 30.66114,1.9993 1.32173,0.65975 3.41209,1.87134 4.64526,2.69241 2.84122,1.891761 7.23118,6.099981 9.41415,9.024421 3.01283,4.03618 5.49047,9.49949 6.60355,14.56115 0.6632,3.01584 0.82244,10.36316 0.29088,13.42061 -1.19083,6.8494 -4.64522,13.95161 -9.27922,19.07805 -8.65316,9.5727 -20.35598,14.36966 -32.95169,13.50682 z m 9.96031,-6.20038 c 10.12793,-2.28849 18.71564,-8.91013 23.39429,-18.03841 1.3536,-2.64095 2.76084,-7.00332 3.17189,-9.83271 0.74464,-5.12556 -0.0895,-11.32446 -2.23047,-16.57587 -4.85229,-11.90174 -17.55427,-20.228941 -30.85644,-20.228941 -10.45839,0 -20.79565,5.179291 -27.199411,13.627751 -1.77884,2.34683 -4.33914,7.52194 -5.1838,10.47798 -3.17822,11.12273 0.34728,23.36351 9.19373,31.92123 8.185231,7.91808 19.005121,11.06788 29.710211,8.64897 z m -11.48359,-12.55612 c -8.75711,-2.29462 -14.87169,-10.28904 -14.87169,-19.44377 0,-3.21344 0.54646,-5.57535 1.95394,-8.44533 2.04812,-4.1763 4.8566,-6.98693 9.01708,-9.02398 3.1904,-1.56208 5.3629,-2.04548 9.12812,-2.0311 5.67428,0.0217 10.35162,1.91643 14.1552,5.73419 2.45392,2.46306 3.57835,4.24922 4.70845,7.4794 0.69516,1.98698 0.82735,2.79363 0.92547,5.64766 0.0954,2.77389 0.0215,3.69724 -0.44257,5.53236 -1.82192,7.20473 -7.3811,12.71196 -14.69252,14.55522 -2.78439,0.70197 -7.19269,0.69989 -9.88148,-0.005 z m 8.78833,-5.69369 c 7.11075,-1.85211 11.64244,-9.08002 10.0842,-16.084 -1.23271,-5.54077 -5.16327,-9.48075 -10.60238,-10.62777 -4.81987,-1.01644 -9.25066,0.27445 -12.70402,3.70127 -5.34499,5.30391 -5.42881,13.69749 -0.19083,19.11043 3.55556,3.67432 8.62289,5.14774 13.41303,3.90007 z m 68.29731,-68.267571 c 1.09223,-0.2256 3.19052,-0.8295 4.66286,-1.34199 12.94515,-4.505912 23.92055,-16.114202 29.43627,-31.133704 0.94741,-2.579838 3.31044,-11.262488 3.31382,-12.176205 0.004,-1.11082 -8.95489,-4.519151 -14.15344,-5.384488 -4.17842,-0.69553 -13.99355,-0.689707 -17.72708,0.01052 -5.45684,1.023429 -12.68752,3.568778 -14.67861,5.167181 -2.083,1.672187 -9.75273,9.290299 -13.3441,13.254302 -6.47891,7.151155 -15.51862,18.030422 -15.71614,18.914342 -0.12064,0.53989 1.45141,1.27175 2.29391,1.06791 0.38451,-0.093 3.52335,-1.53323 6.9752,-3.20045 15.42083,-7.448157 24.94587,-11.085464 40.12341,-15.321846 2.32352,-0.648543 3.10952,-0.699619 2.53078,-0.164453 -5.43761,5.02816 -16.23809,13.429979 -21.24753,16.528699 -5.30668,3.28257 -8.84477,4.69915 -15.31348,6.13117 -0.98792,0.21871 -0.68172,0.73859 1.05833,1.79692 0.90951,0.55318 2.72521,1.66823 4.0349,2.47789 3.00809,1.859642 4.72877,2.631082 7.25484,3.252622 2.58447,0.6359 7.71818,0.69537 10.49606,0.12158 z M 155.19314,60.533067 c 8.22661,-11.514629 16.6499,-21.71421 24.76665,-29.989418 2.29743,-2.34228 4.17715,-4.37821 4.17715,-4.524289 0,-0.146079 -0.80282,-1.064482 -1.78404,-2.040896 -1.81676,-1.807853 -5.28838,-3.8605 -6.52922,-3.8605 -1.10412,0 -13.22432,11.736542 -18.44318,17.859375 -5.51493,6.470183 -10.5148,13.442006 -13.35122,18.616948 l -1.77064,3.23046 0.59651,0.63495 c 1.37774,1.46654 4.63149,2.73193 8.07658,3.14098 1.97034,0.23396 1.83089,0.33434 4.26141,-3.06761 z M 141.52905,48.314631 c 2.66925,-4.485673 2.93385,-5.658433 2.44539,-10.838447 -1.02001,-10.816942 -6.29873,-20.01311 -14.73854,-25.676365 -6.01837,-4.0384246 -12.40232,-5.6536236 -19.46887,-4.9258076 -2.81337,0.289761 -6.15898,1.062851 -6.62761,1.531481 -0.31177,0.311767 0.27944,3.2724836 1.50073,7.5155836 3.215,11.169799 8.32808,20.186383 15.86404,27.97523 4.63614,4.79171 8.10692,7.446582 7.43044,5.6837 -0.30026,-0.782448 -3.87155,-15.804523 -5.30587,-22.318292 -0.81711,-3.710781 -1.54804,-6.955234 -1.62428,-7.209896 -0.35239,-1.177058 0.58551,-0.188089 2.76012,2.910417 5.24988,7.48032 9.0609,14.426148 11.94033,21.761979 0.88535,2.255573 1.84583,4.610243 2.13441,5.232599 0.28857,0.622357 0.52468,1.283154 0.52468,1.468438 0,0.452266 0.59218,1.022337 0.80343,0.773443 0.0926,-0.109141 1.15536,-1.856969 2.3616,-3.884063 z"
       id="path12"
       inkscape:label="black line" /><path
       style="display:none;fill:#ffffff;stroke-width:0.143729;stroke-linecap:square"
       d="m 66.638401,114.55878 c -1.48762,-0.52034 -2.504731,-1.73483 -2.752963,-3.28722 -0.331523,-2.07329 4.142423,-11.12949 7.887785,-15.966562 4.792318,-6.189186 10.880328,-11.325127 17.058904,-14.391169 4.353401,-2.160323 10.154946,-4.274079 11.730903,-4.274079 0.75169,0 1.98853,0.553561 2.5975,1.162545 2.41718,2.417164 1.40586,5.98194 -2.06484,7.278512 -0.67238,0.25118 -2.008366,0.741593 -2.968883,1.089806 -5.349637,1.939369 -10.831962,5.28678 -15.003012,9.160544 -4.878573,4.530883 -7.675325,8.381033 -10.421488,14.346753 -1.515216,3.29164 -2.017739,4.05148 -3.057551,4.623 -1.018408,0.55977 -1.921722,0.63725 -3.006355,0.25787 z"
       id="path26"
       inkscape:label="cog reflex" /><path
       style="display:inline;fill:#ffffff;stroke-width:0.143729;stroke-linecap:square"
       d="m 116.78861,35.221545 c -1.62965,-1.778762 -5.15178,-8.164267 -7.37585,-13.372171 -1.81625,-4.252984 -3.92932,-11.617028 -3.58838,-12.505515 0.30136,-0.7853686 3.214,-1.2274114 8.02008,-1.2171913 4.19502,0.00892 5.55529,0.1690335 7.70474,0.9068855 1.92887,0.6621331 3.64707,1.8477778 5.8443,4.0328348 2.36847,2.35533 5.64005,6.458137 5.36726,6.730928 -0.0396,0.03962 -1.24706,-0.719961 -2.68319,-1.687968 -2.76114,-1.861113 -6.3396,-3.714779 -8.3743,-4.337927 -1.15194,-0.352802 -4.5778,-0.682717 -7.22839,-0.696108 l -0.94136,-0.0048 0.1021,3.274512 c 0.11623,3.727409 0.29948,4.770581 2.38464,13.574478 0.68196,2.879465 1.21801,5.342228 1.19115,5.472805 -0.034,0.165627 -0.16187,0.113975 -0.4228,-0.170809 z"
       id="path27"
       inkscape:label="leaf reflex left" /><path
       style="display:inline;fill:#ffffff;stroke-width:0.143729;stroke-linecap:square"
       d="m 145.02917,60.172671 c -1.18758,-0.591468 -1.24571,-0.810258 -0.5647,-2.125287 3.38929,-6.544606 14.16781,-19.309601 24.51807,-29.036735 4.77589,-4.488354 7.85201,-6.993596 8.37372,-6.819693 0.10676,0.03559 -2.27288,2.579129 -5.28813,5.652317 -11.94104,12.170606 -15.85499,17.077897 -22.34083,28.010776 -1.28098,2.159273 -2.50743,4.104333 -2.72545,4.322355 -0.49233,0.492337 -0.97848,0.491416 -1.97268,-0.0037 z"
       id="path28"
       inkscape:label="leaf reflex stem" /><path
       style="display:inline;fill:#ffffff;stroke-width:0.143729;stroke-linecap:square"
       d="m 171.2139,47.166797 c 0,-0.274114 1.84682,-2.78723 3.5714,-4.859888 2.05526,-2.470052 6.68115,-7.206782 8.02537,-8.217643 2.70552,-2.034554 8.93569,-4.424429 14.43215,-5.536121 6.27906,-1.269981 14.08948,-1.410348 19.92177,-0.358029 1.55289,0.280189 2.77619,0.835443 2.48412,1.127533 -0.0891,0.08906 -2.90909,0.279879 -6.26673,0.424045 -8.31361,0.356957 -11.0167,0.697881 -15.29361,1.928902 -9.59207,2.760864 -15.6278,6.095201 -23.99289,13.254427 -2.76947,2.37023 -2.88158,2.457254 -2.88158,2.236774 z"
       id="path29"
       inkscape:label="leaf reflex right" /><path
       style="fill:#ffffff;stroke-width:0.105488;stroke-linecap:square"
       d="m 65.748016,114.30695 c -1.31916,-0.65918 -2.15424,-1.8375 -2.29947,-3.24455 -0.0844,-0.81765 0.4308,-2.45271 1.62433,-5.15522 2.73116,-6.184211 6.06182,-11.063801 10.78939,-15.807071 5.80089,-5.820176 11.38621,-9.347257 19.40449,-12.253776 3.677791,-1.333146 5.178694,-1.521246 6.574214,-0.823897 3.05139,1.524799 2.97532,5.980126 -0.12917,7.563908 -0.30049,0.153305 -1.49992,0.620644 -2.665393,1.038532 -7.436321,2.666353 -12.624931,5.909003 -17.891541,11.181443 -4.18701,4.191641 -6.45981,7.505531 -8.96517,13.071861 -1.13268,2.51658 -1.78697,3.63283 -2.37464,4.05127 -0.75914,0.54057 -1.44571,0.76097 -2.37945,0.76386 -0.75917,0.002 -1.03703,-0.0613 -1.68759,-0.38636 z"
       id="path32"
       inkscape:label="cog reflex big" /><ellipse
       style="display:inline;fill:#fc7317;fill-opacity:1;stroke-width:0.212039;stroke-linecap:square"
       id="path42"
       cx="119.72161"
       cy="130.46225"
       rx="11.382268"
       ry="11.354733"
       inkscape:label="cog center" /><path
       style="fill:#ffffff;stroke-width:0.105488;stroke-linecap:square"
       d="m 109.58342,130.07883 c -0.53324,-0.85383 0.30678,-3.7744 1.64505,-5.71948 0.84521,-1.2285 2.99323,-3.14039 4.24828,-3.7813 1.8687,-0.95428 3.94528,-0.63952 3.94528,0.59802 0,0.60103 -0.5534,1.11405 -2.12262,1.96767 -2.71349,1.4761 -4.0495,2.84093 -5.49735,5.6159 -0.66361,1.27186 -0.96513,1.5738 -1.57166,1.5738 -0.34806,0 -0.53358,-0.073 -0.64698,-0.25461 z"
       id="path33"
       inkscape:label="cog reflex center" /><path
       style="fill:#ffffff;stroke-width:0.105488;stroke-linecap:square"
       d="m 68.762066,47.265265 c -0.96549,-1.353005 -2.24499,-3.537455 -3.03413,-5.180118 -1.83076,-3.810818 -1.97279,-5.35264 -0.68784,-7.467473 1.52106,-2.50343 4.93252,-5.457579 8.17494,-7.079083 2.53444,-1.267455 2.99781,-1.211811 0.8654,0.10392 -1.67421,1.032984 -3.67557,2.663415 -5.16155,4.204888 -2.18442,2.265997 -2.72029,3.386973 -2.71872,5.687544 0.003,2.231131 0.54951,4.191222 2.23387,7.990094 0.55756,1.257472 0.99253,2.349936 0.96661,2.427697 -0.0259,0.07776 -0.3133,-0.231603 -0.63858,-0.687469 z"
       id="path34"
       inkscape:label="cog reflex top left" /></g></svg>
