<svg width="927" height="927" viewBox="0 0 245.269 245.269" xml:space="preserve" xmlns:xlink="http://www.w3.org/1999/xlink" xmlns="http://www.w3.org/2000/svg"><defs><linearGradient id="b"><stop style="stop-color:#fca10a;stop-opacity:1" offset="0"/><stop style="stop-color:#fc3424;stop-opacity:1" offset="1"/></linearGradient><linearGradient id="a"><stop style="stop-color:#fdbc09;stop-opacity:1" offset="0"/><stop style="stop-color:#fd4b20;stop-opacity:1" offset="1"/></linearGradient><linearGradient xlink:href="#a" id="c" x1="52.108" y1="130.313" x2="191.064" y2="130.313" gradientUnits="userSpaceOnUse"/><linearGradient xlink:href="#b" id="d" x1="13.641" y1="130.088" x2="223.172" y2="130.088" gradientUnits="userSpaceOnUse"/></defs><g style="display:inline"><path style="display:inline;fill:#368c34" d="M111.06 1.27c-4.18-.024-8.294 1.024-12.16 2.554-.996.438-2.146 1.123-2.149 2.36-.04 1.71.48 3.378.755 5.055a95.309 95.309 0 0 0 6.71 20.513c.531 2.045 1.645 3.87 2.561 5.756.815 1.165 1.761 2.24 2.544 3.433 3.713 5.342 8.27 10.065 13.226 14.264 4.403 3.612 9.04 7.068 14.32 9.29 4.63 1.995 9.536 3.244 14.455 4.015 2.048.453 4.338.34 6.085 1.67 6.105 3.905 11.997 8.348 18.898 10.783 3.031 1.078 6.062 1.776 9.279 2.023 2.95.222 6.17.04 9.174-.544 5.177-1.076 9.794-3.779 14.492-6.079 1.733-1.044 3.308-2.311 4.843-3.59 1.513-1.382 2.72-3.052 4.197-4.471 4.654-4.697 8.538-10.148 11.341-16.15 2.283-4.572 4.222-9.303 5.434-14.274.785-2.941 1.658-5.892 1.975-8.924-.284-1.33-1.731-1.85-2.727-2.567-3.803-2.219-7.98-3.745-12.16-4.934A46.132 46.132 0 0 0 209.1 19.81c-4.736-.04-9.482.092-14.067 1.455-1.975.565-3.91 1.261-5.861 1.903-2.492-2.823-5.181-5.62-8.647-7.232-1.797-.934-3.596-1.955-5.603-2.385-1.488.157-2.37 1.548-3.499 2.368-5.732 5.097-11.212 10.54-16.563 16.063-1.478 1.573-2.87 3.236-4.372 4.78-.61.433-1.163-.284-1.203-.863-.841-3.446-1.378-6.987-2.67-10.293-2.217-6.124-6.092-11.59-10.982-15.874a35.961 35.961 0 0 0-9.603-6.01c-2.143-.96-4.228-1.636-6.57-2.056-2.706-.457-5.619-.413-8.4-.396z"/><path style="display:inline;fill:#4db742" d="M112.726 7.197c-1.339.014-2.676.076-4.01.207-1.69.23-3.443.351-5.038.997-.792.587-.35 1.734-.24 2.545 2.202 10.01 6.354 19.712 12.64 27.793 3.084 3.767 6.548 7.22 10.186 10.45.228.215 2.14 2.398 1.725 1.338l8.92-1.121c.104.36.647.064.878-.774.485-2.001.535-4.134.693-6.148.207-3.84.06-7.734-.863-11.39-1.728-6.239-4.68-12.214-8.995-17.076-2.292-2.551-4.991-4.99-8.349-5.977-2.393-.697-5.03-.802-7.547-.844zm63.53 11.706c-.799.631-4.45 1.919-5.219 2.591-8.491 7.608-15.303 15.458-21.849 24.34-2.809 3.858-5.867 7.887-7.98 12.199-.126.492.619 3.215.923 3.712 1.615 1.153 3.351 2.192 5.255 2.777.558.328 1.42-1.997 1.575-2.43 1.153-3.7 2.9-7.2 5.056-10.42 3.403-5.218 7.742-9.73 12.165-14.083 3.98-4.025 8.21-7.788 12.346-11.648.794-.833 3.183-2.84 3.827-3.792-1.552-1.457-4.118-2.498-6.099-3.246zm30.904 5.685c-1.525.027-2.983.082-4.494.23-4.784.448-9.54 1.61-14.064 3.392-2.792.951-5.225 2.695-7.341 4.72-5.92 5.658-11.398 11.76-16.728 17.972-2.815 3.36-5.683 6.685-8.298 10.204-.215.463-1.758 2.371-1.243 2.881 1.124.6 2.919 2.356 3.983 1.92 2.817 3.851 5.648.96 10.19 2.52.976.877 3.819 2.149 4.957 2.79 1.507.857 3.255 1.034 4.956.961 2.812-.053 5.468-.586 8.096-1.47 6.335-2.191 12.083-5.724 17.215-9.976 7.172-5.953 12.977-13.755 15.478-22.793.814-3.234.913-7.74 1.057-11.076.187-.78-.772-.782-1.276-.937-4.058-.99-8.313-1.342-12.488-1.338z"/><path style="display:inline;opacity:1;fill:url(#c);stroke-width:.209439;stroke-linecap:square" d="M121.586 62.838a69.478 67.475 0 0 0-69.478 67.475 69.478 67.475 0 0 0 69.478 67.475 69.478 67.475 0 0 0 69.478-67.475 69.478 67.475 0 0 0-69.478-67.475zm-.347 30.826a37.316 37.107 0 0 1 37.316 37.107 37.316 37.107 0 0 1-37.316 37.107 37.316 37.107 0 0 1-37.315-37.107 37.316 37.107 0 0 1 37.315-37.107z"/><path style="display:inline;fill:url(#d);stroke-width:.179035;stroke-linecap:square" d="M80.85 22.22c-1.324.043-2.591.48-3.837.892-2.855 1.022-5.505 2.546-7.999 4.258-2.17 1.524-4.252 3.203-6.033 5.176-.838.957-1.656 1.982-2.087 3.195-.207.575-.251 1.218-.03 1.796.4 1.166.945 2.275 1.45 3.398 2.535 5.482 5.184 10.911 7.695 16.405a77.913 77.913 0 0 1 1.332 3.07c.133.335.248.64.37.992.173.565.41 1.162.286 1.761-.071.361-.392.624-.604.869-2.616 2.788-5.377 5.42-8.028 8.179-1.72 1.794-3.437 3.596-5.053 5.486-.92 1.094-1.822 2.208-2.829 3.224-.201.157-.492.09-.73.071-1.08-.19-2.113-.571-3.153-.91-4.66-1.601-9.276-3.38-13.946-4.99-1.394-.465-2.785-.965-4.228-1.262-.491-.102-1.01-.117-1.486.06a7.942 7.942 0 0 0-3.048 1.783c-.77.791-1.377 1.721-1.967 2.649-1.53 2.478-2.792 5.113-3.907 7.8-.818 2.023-1.578 4.082-2.045 6.218-.217.987-.31 2.006-.244 3.015.063.74.436 1.407.822 2.025.512.701 1.3 1.118 2.018 1.576 2.317 1.381 4.687 2.673 7.036 4 1.836 1.03 3.67 2.06 5.476 3.124 1.361.82 2.749 1.613 3.987 2.615.4.352.863.74.959 1.292.005.954-.091 1.904-.165 2.854-.093 1.057-.217 2.151-.306 3.224-.304 3.55-.492 7.107-.626 10.666-.11 2.541-.206 5.097-.355 7.625-.046.62-.08 1.291-.186 1.924-.04.35-.223.7-.561.843-1.033.522-2.138.88-3.22 1.282-4.193 1.476-8.44 2.887-12.657 4.326-2.398.824-4.803 1.627-7.192 2.478-.958.389-1.582 1.32-1.848 2.29-.439 1.54-.26 3.165-.036 4.724.537 3.74 1.433 7.42 2.515 11.036.86 2.806 1.815 5.594 3.092 8.24.502.986 1.019 1.995 1.803 2.79.419.404.906.787 1.504.857.934.122 1.872-.071 2.79-.224 2.525-.475 5.021-1.09 7.522-1.673 5.304-1.25 10.59-2.579 15.919-3.713.382-.07.73-.17 1.12-.194.582.035.99.516 1.359.913 1.126 1.324 2.058 2.797 3.048 4.22 2.594 3.796 5.395 7.457 8.524 10.829 1.693 1.85 3.503 3.587 5.289 5.345.733.75 1.508 1.474 2.115 2.334.22.293.301.676.188 1.029-.296 1.087-.78 2.111-1.222 3.145-1.677 3.754-3.461 7.46-5.21 11.182-1.134 2.43-2.306 4.845-3.36 7.312-.318.8-.702 1.637-.571 2.52.159 1.238.877 2.319 1.662 3.256 1.437 1.675 3.22 3.013 5.061 4.212 2.32 1.477 4.763 2.752 7.235 3.953 2.314 1.11 4.659 2.173 7.091 3.001.953.32 1.955.6 2.97.481 1.335-.118 2.568-.884 3.331-1.977.718-1.09 1.377-2.219 2.066-3.327 3.149-5.138 6.238-10.312 9.451-15.41.586-.901 1.14-1.829 1.805-2.675.29-.11.624-.077.932-.089 1.54.023 3.055.302 4.592.501 4.258.55 8.542.86 12.827 1.11 1.165.092 2.343.133 3.484.4.5.105.953.438 1.138.924.384.977.562 2.02.784 3.043.848 4.282 1.556 8.591 2.368 12.88.299 1.501.555 3.018 1.03 4.476.238.74.648 1.42 1.197 1.97.964 1.06 2.108 1.993 3.46 2.502.738.295 1.517.49 2.312.522 1.907.108 3.816-.076 5.708-.301 2.606-.338 5.204-.805 7.725-1.557 1.1-.327 2.176-.756 3.153-1.366a23.723 23.723 0 0 0 4.772-3.86c.517-.555 1.023-1.12 1.535-1.678-.086-1.386-.134-2.776-.324-4.154-.26-2.174-.624-4.334-.964-6.496-.14-.936-.26-1.875-.358-2.817-.04-.419-.084-.896-.112-1.34-.133-2.124-.125-4.311.552-6.353.432-1.321 1.205-2.508 2.147-3.523.331-.403.708-.789.921-1.27.096-.19.32-.297.48-.435 1.277-.906 2.657-1.744 3.988-2.607 3.846-2.472 7.46-5.293 10.88-8.324 2.134-1.87 4.183-3.832 6.249-5.776.692-.629 1.36-1.297 2.142-1.813.28-.218.64-.077.95-.028 1.051.236 2.051.546 3.082.846 6.054 1.825 12.08 3.744 18.122 5.606 1.683.514 3.36 1.051 5.052 1.534a.89.89 0 0 0 .546-.444c.706-1.183 1.302-2.428 1.924-3.656 1.205-2.448 2.403-4.9 3.478-7.408a43.077 43.077 0 0 0 1.891-6.1c.324-1.413.545-2.85.6-4.3l.091-1.535c-.512-.72-.968-1.487-1.6-2.113-.758-.805-1.614-1.508-2.478-2.196-1.112-.907-2.182-1.864-3.246-2.826-1.338-1.196-2.996-1.927-4.594-2.7-1.598-.768-3.208-1.517-4.774-2.35-.715-.418-1.492-.82-1.98-1.514-.436-.671-.314-1.513-.201-2.26.223-1.228.562-2.432.786-3.66.915-4.706 1.363-9.489 1.639-14.27.24-4.234.3-8.476.288-12.716 0-.59 0-1.18.002-1.77.455-.422.89-.893 1.48-1.128 1.288-.56 2.629-.986 3.95-1.46 3.52-1.237 7.05-2.457 10.524-3.818.535-.23 1.101-.413 1.59-.736.321-.303.462-.744.655-1.131.574-1.323 1.1-2.67 1.504-4.055.47-1.737.317-3.564.036-5.318-.408-2.513-1.001-4.99-1.584-7.465-.668-2.738-1.37-5.48-2.422-8.1-.744-1.819-1.713-3.616-3.23-4.909a3.422 3.422 0 0 0-2.351-.843c-1.29.044-2.518.5-3.718.939-2.444.932-4.82 2.054-7.227 3.05-2.216.916-4.476 1.818-6.872 2.118-2.119.29-4.266.21-6.394.088a74.692 74.692 0 0 1-4.424-.414c-2.122-.263-4.28-.604-6.382-1.087-1.233-.292-2.465-.625-3.615-1.167-.387-.143-2.221-2.001-2.643-1.984-.13.033-6.767-2.39-3.2.006-.155.215 1.327 1.258 1.474 1.474.603.909 4.211 2.741 4.89 3.591a76.339 76.339 0 0 1 4.768 6.475 66.074 66.074 0 0 1 5.356 10.047c.112.273.26.616.372.892a68 68 0 0 1 4.102 14.43c.433 2.357.544 4.757.63 7.147.066 2.184.076 4.406.02 6.605-.025.964-.067 1.96-.13 2.91a31.904 31.904 0 0 1-.409 3.527c-.06.348-.127.759-.194 1.13-.138.765-.286 1.54-.444 2.28-1.293 6.194-3.427 12.221-6.431 17.795a66.943 66.943 0 0 1-4.944 7.83c-.262.351-.553.752-.835 1.115a68.355 68.355 0 0 1-8.896 9.602c-.277.241-.597.529-.896.782-6.635 5.707-14.392 10.087-22.676 12.9a73.91 73.91 0 0 1-3.114.983 73.951 73.951 0 0 1-12.485 2.48c-1.521.142-3.058.208-4.57.253-2.26.062-4.523.066-6.784-.001-.32-.013-.728-.026-1.043-.042-1.38-.05-2.75-.212-4.116-.4-.515-.075-1.083-.156-1.616-.242a75.953 75.953 0 0 1-5.32-1.037 71.498 71.498 0 0 1-2.662-.667c-6.196-1.673-12.18-4.17-17.66-7.515a71.594 71.594 0 0 1-6.526-4.469c-.245-.194-.568-.443-.815-.638-6.36-5.048-11.826-11.228-15.993-18.2a66.348 66.348 0 0 1-7.527-18.367c-.088-.386-.2-.829-.287-1.24-.413-1.882-.78-3.779-1.004-5.695-.188-1.698-.287-3.388-.354-5.1a99.353 99.353 0 0 1-.034-6.566c.02-.671.054-1.414.098-2.088a44.08 44.08 0 0 1 .333-3.211 67.551 67.551 0 0 1 1.364-7.244c.108-.43.242-.945.356-1.371 1.41-5.185 3.537-10.159 6.138-14.855a66.603 66.603 0 0 1 17.198-20.126 68.27 68.27 0 0 1 8.011-5.395 72.132 72.132 0 0 1 14.707-6.395 69.492 69.492 0 0 1 10.867-2.4 71.41 71.41 0 0 1 6.103-.576 74.401 74.401 0 0 1 4.852-.09c2.131.029 4.27.147 6.402.35 1.136.11 2.296.243 3.448.365-.365-.607-.698-1.236-1.084-1.829-.587-.721-1.338-1.288-2.077-1.843a85.003 85.003 0 0 1-6.522-5.014c-4.798-4.083-9.18-8.67-12.944-13.726-.88-1.17-1.669-2.415-2.654-3.502a.819.819 0 0 0-.753-.29c-1.726.12-3.405.58-5.123.764-.746.067-1.532.17-2.253-.09-.467-.376-.86-.77-1.297-1.182-3.702-3.58-7.197-7.363-10.835-11.007-.937-.928-1.853-1.881-2.839-2.76-.827-.676-1.808-1.242-2.898-1.302a4.876 4.876 0 0 0-.44-.012z"/><path style="display:inline;fill:#d12929;fill-opacity:1;stroke-width:.217752;stroke-linecap:square" d="m127.926 57.406 3.737 5.76s.242 1.847 8.01 5.95c7.769 4.104 16.759 4.01 20.057 6.306 3.297 2.296 11.904 8.783 15.543 10.269 3.639 1.486 17.233 3.558 22.855 1.814 5.622-1.745 12.529-5.948 15.573-5.731 3.043.217 5.415 5.71 6.905 12.236 1.49 6.526 3.172 11.528 1.336 15.667-1.837 4.14-2.285 6.687-2.285 6.687l10.099-5.941.16-8.423-2.997-17.152-7.398-8.234-8.99-3.294-21.8 6.96-28.125-11.405-25.334-7.57zM208.995 159.072c-.042.028 4.334 4.459 4.334 4.459s4.73 2.956 5.462 5.394c.732 2.438-1.62 9.933-2.747 12.554-1.128 2.621-5.637 11.404-5.637 11.404l4.055 2.514 13.625-25.078-7.904-8.565z"/><path style="display:inline;fill:#df3626;fill-opacity:1;stroke-width:.217752;stroke-linecap:square" d="M160.068 203.22s-1.993.582-3.547 4.203c-1.554 3.621-.511 9.734-.368 10.667.142.933 1.868 9.425 1.256 10.91-.612 1.485-4.616 4.905-7.048 6.046-2.431 1.142-9.438 2.408-14.205 2.566-1.542.051-4.175-.527-5.68-2.052-1.402-1.42-3.808-4.357-3.808-4.357l2.763 9.231 26.766.012 10.06-9.549z"/><ellipse style="display:inline;fill:#dc3327;fill-opacity:1;stroke-width:.217752;stroke-linecap:square" cx="121.926" cy="131.438" rx="17.332" ry="16.292"/><path style="display:inline;opacity:1;mix-blend-mode:normal;fill:#2d2f32" d="M136.563 244.22c-3.402-.48-5.76-1.4-8.144-3.181-3.157-2.356-4.28-5.648-6.45-18.912-.452-2.765-.926-5.276-1.052-5.58-.215-.516-.504-.564-4.384-.724-2.285-.094-5.72-.373-7.632-.62-5.683-.735-5.032-.958-7.073 2.426-.965 1.601-3.399 5.691-5.408 9.09-4.156 7.029-5.452 8.628-8.011 9.888-1.608.791-1.966.865-4.147.848-8.546-.064-25.246-8.941-28.567-15.185-.973-1.83-1.235-4.848-.592-6.814.228-.696 2.504-5.552 5.057-10.791 2.553-5.239 4.644-9.718 4.646-9.953.002-.236-1.88-2.32-4.184-4.63-4.67-4.685-7.045-7.548-9.893-11.926-1.06-1.628-2.05-3.013-2.202-3.079-.15-.065-3.485.642-7.408 1.572-3.923.93-9.098 2.117-11.499 2.637-9.232 2.002-12.065.89-15.444-6.06-2.865-5.895-4.788-12.42-5.862-19.89-.492-3.426-.489-6.052.01-7.732.55-1.85 2.317-3.765 4.284-4.643.844-.376 5.94-2.076 11.324-3.776 5.384-1.7 9.939-3.212 10.12-3.359.221-.178.332-1.07.332-2.682.002-3.771.485-10.737 1.065-15.355.457-3.643.478-4.283.157-4.762-.211-.315-2.24-1.404-4.7-2.523-7.885-3.588-11.723-5.527-12.85-6.492-1.326-1.136-2.617-3.662-2.858-5.593-.61-4.876 4.178-17.617 8.711-23.182 2.1-2.578 5.677-4.436 8.541-4.436 1.834 0 3.53.53 12.237 3.829 4.43 1.678 8.197 3.05 8.372 3.05.174 0 1.19-1.041 2.257-2.315 1.95-2.327 6.861-7.373 9.407-9.664.752-.677 1.442-1.35 1.532-1.498.091-.147-2.31-5.141-5.336-11.098l-5.501-10.832.01-2.603c.009-2.331.088-2.755.76-4.058C59.096 27.982 67.713 21.63 76 19.007c2.238-.708 3.133-.856 5.215-.864 3.821-.014 4.032.139 12.11 8.786 4.756 5.09 6.903 7.211 7.301 7.21.31 0 .982-.108 1.49-.238.51-.131 1.254-.311 1.654-.4.4-.09.728-.327.728-.526 0-.2-.59-1.687-1.31-3.304-1.51-3.39-3.351-8.569-4.336-12.199-.864-3.186-2.286-10.191-2.29-11.275-.002-1.236.845-2.081 2.975-2.966 4.411-1.834 9.027-2.552 15.14-2.359 5.984.19 8.376.775 13.766 3.367 11.032 5.306 18.439 15.546 20.874 28.86.45 2.464.7 3.29.994 3.29.216 0 1.292-1.07 2.391-2.38 5.478-6.529 20.13-20.446 22.026-20.922.431-.108 1.403.166 2.967.838 4.88 2.096 8.502 4.558 10.489 7.13.612.793 1.299 1.443 1.525 1.443.227 0 1.358-.343 2.514-.764 7.269-2.648 18.455-3.18 27.766-1.322 7.31 1.46 17.252 6.013 17.714 8.114.382 1.74-2.776 13.316-5.213 19.109-3.649 8.675-7.588 14.727-13.623 20.929-1.784 1.833-3.244 3.466-3.244 3.627 0 .162.506.429 1.125.593 4.466 1.188 8.037 4.977 11.58 12.29 2.715 5.6 4.042 10.4 4.773 17.264.626 5.87-.78 9.022-5.382 12.064-3.632 2.4-8.373 4.505-15.907 7.059l-3.678 1.247-.043 8.17c-.044 8.48-.273 11.196-1.496 17.76-.305 1.637-.488 3.149-.407 3.36.08.21 4.052 2.346 8.826 4.746 9.43 4.74 11.552 5.98 12.604 7.36 3.27 4.287 2.726 10.694-1.673 19.698-1.736 3.552-5.064 8.689-7.093 10.948-2.439 2.715-5.06 3.574-8.947 2.935-1.003-.164-7.028-1.986-13.39-4.048l-11.57-3.748-2.454 2.365c-4.803 4.63-10 8.712-14.819 11.64-1.416.86-2.621 1.684-2.678 1.83-.058.146.352 3.123.91 6.615 2.776 17.366 2.866 18.85 1.32 21.75-2.525 4.737-9.044 8.143-18.672 9.755-2.896.485-9.702.698-11.988.376zm9.914-4.894c9.497-1.176 16.493-5.42 16.493-10.007 0-.572-.414-3.495-.92-6.497-2.785-16.504-3.08-18.83-2.518-19.88.147-.273 1.368-1.146 2.716-1.939 5.692-3.35 12.066-8.422 17.652-14.046 2.707-2.727 3.44-3.327 4.066-3.327.42 0 6.375 1.776 13.233 3.946 15.28 4.835 15.403 4.87 16.172 4.678 1.622-.407 4.243-3.909 6.932-9.26 2.225-4.427 3.575-8.72 3.71-11.799.168-3.793.372-3.592-7.667-7.526-3.672-1.797-8.522-4.121-10.778-5.165-5.881-2.72-6.239-3.178-5.315-6.798 1.58-6.185 2.41-14.478 2.413-24.103l.003-7.212.722-.769c.573-.61 1.803-1.128 5.944-2.507a255.992 255.992 0 0 0 10.452-3.79c6.303-2.474 7.089-3.078 8.028-6.169.5-1.644.56-2.323.442-4.982-.46-10.437-6.093-22.068-12.038-24.854-1.281-.6-1.88-.713-3.785-.713h-2.263l-4.616 2.305c-6.864 3.428-10.154 4.387-15.861 4.621-3.775.155-7.187-.271-10.98-1.372-5.255-1.526-9.827-3.9-17.436-9.052-2.459-1.665-4.757-3.136-5.108-3.27-.35-.133-2.268-.49-4.26-.794-9.69-1.474-17.058-4.291-23.732-9.075-8.143-5.835-14.725-12.412-19.56-19.546-.864-1.273-1.697-2.314-1.853-2.314-.156 0-1.534.238-3.061.529-4.68.891-4.396.979-7.5-2.315-4.691-4.977-11.386-11.808-12.315-12.565-1.46-1.19-2.622-1.414-4.694-.903-3.992.985-8.654 3.505-12.663 6.843-3.646 3.038-5.428 5.385-5.425 7.145.002.699.697 2.23 6.849 15.105 3.189 6.673 4.527 9.746 4.527 10.398 0 1.293-.555 2.228-2.034 3.425-3.35 2.713-9.622 9.272-12.89 13.48-1.4 1.805-1.948 2.25-2.766 2.247-.384 0-3.14-.905-6.122-2.008-11.257-4.162-14.85-5.398-15.695-5.398-.478 0-1.496.312-2.26.693-1.085.54-1.674 1.097-2.686 2.537-3.613 5.145-7.488 15.075-6.982 17.892.213 1.184.754 2.153 1.517 2.716.316.233 3.848 2.243 7.85 4.469 11.018 6.126 11.295 6.35 11.028 8.942-.086.832-.34 3.298-.563 5.481-.365 3.559-.539 7.317-.774 16.73-.078 3.106-.276 3.655-1.564 4.345-.263.14-5.376 1.856-11.361 3.812-5.986 1.956-11.166 3.742-11.51 3.968-1.083.709-1.659 1.957-1.66 3.596-.002 3.471 1.863 11.835 3.882 17.406 2.291 6.322 3.602 8.22 5.677 8.22.578 0 6.254-1.256 12.613-2.79s12.108-2.92 12.775-3.078c1.773-.422 2.481.018 4.12 2.56 4.702 7.299 8.947 12.495 14.505 17.756 3.393 3.211 3.577 3.439 3.577 4.41 0 .784-1.168 3.452-5.018 11.458-2.76 5.74-5.144 10.906-5.298 11.479-.708 2.63 1.038 5.088 5.93 8.346 4.654 3.1 13.492 7.204 16.588 7.704 1.229.198 3.128-.615 3.864-1.655.296-.418 3.297-5.344 6.668-10.947 3.37-5.603 6.39-10.407 6.71-10.677.651-.55.565-.554 6.804.333 2.11.3 6.516.69 9.79.866 5.863.316 5.963.331 6.647 1.009.83.822.837.854 2.892 12.525 1.78 10.111 2.202 11.5 3.88 12.777 3.162 2.407 8.731 3.232 15.86 2.35zm-28.221-70.544c-13.712-.94-25.884-9.225-32.022-21.796-2.737-5.606-3.792-10.208-3.792-16.537 0-4.716.435-7.52 1.828-11.79 3.655-11.203 12.88-20.262 24.602-24.16 10.07-3.349 21.43-2.608 30.66 2a52.264 52.264 0 0 1 4.646 2.692c2.841 1.891 7.231 6.1 9.414 9.024 3.013 4.036 5.49 9.5 6.604 14.561.663 3.016.822 10.363.29 13.42-1.19 6.85-4.645 13.953-9.279 19.079-8.653 9.573-20.356 14.37-32.951 13.507zm9.96-6.2c10.128-2.29 18.716-8.91 23.394-18.039 1.354-2.641 2.761-7.003 3.172-9.833.745-5.125-.09-11.324-2.23-16.576-4.853-11.901-17.555-20.229-30.857-20.229-10.458 0-20.795 5.18-27.2 13.628-1.778 2.347-4.338 7.522-5.183 10.478-3.178 11.123.347 23.364 9.194 31.921 8.185 7.919 19.005 11.068 29.71 8.65zm-11.484-12.557c-8.757-2.294-14.871-10.289-14.871-19.443 0-3.214.546-5.576 1.954-8.446 2.048-4.176 4.856-6.987 9.017-9.024 3.19-1.562 5.363-2.045 9.128-2.03 5.674.02 10.351 1.916 14.155 5.733 2.454 2.463 3.578 4.25 4.709 7.48.695 1.987.827 2.793.925 5.647.095 2.774.021 3.698-.443 5.533-1.822 7.204-7.38 12.712-14.692 14.555-2.784.702-7.193.7-9.882-.005zm8.789-5.693c7.11-1.853 11.642-9.08 10.084-16.084-1.233-5.541-5.163-9.481-10.602-10.628-4.82-1.017-9.251.274-12.704 3.701-5.345 5.304-5.43 13.698-.191 19.11 3.555 3.675 8.623 5.148 13.413 3.9zm68.297-68.268c1.092-.226 3.19-.83 4.663-1.342 12.945-4.506 23.92-16.114 29.436-31.134.948-2.58 3.31-11.262 3.314-12.176.004-1.11-8.955-4.519-14.153-5.384-4.179-.696-13.994-.69-17.728.01-5.456 1.024-12.687 3.569-14.678 5.167-2.083 1.673-9.753 9.29-13.344 13.255-6.48 7.15-15.519 18.03-15.716 18.914-.121.54 1.451 1.272 2.294 1.068.384-.093 3.523-1.533 6.975-3.2 15.42-7.449 24.946-11.086 40.123-15.322 2.324-.649 3.11-.7 2.53-.165-5.437 5.028-16.237 13.43-21.247 16.529-5.306 3.282-8.844 4.699-15.313 6.131-.988.219-.682.739 1.058 1.797a813.2 813.2 0 0 1 4.035 2.478c3.008 1.86 4.729 2.63 7.255 3.252 2.584.636 7.718.696 10.496.122zm-38.625-15.53c8.227-11.516 16.65-21.715 24.767-29.99 2.297-2.343 4.177-4.379 4.177-4.525 0-.146-.803-1.064-1.784-2.04-1.817-1.808-5.288-3.861-6.53-3.861-1.103 0-13.224 11.737-18.443 17.86-5.514 6.47-10.514 13.441-13.35 18.616l-1.771 3.23.596.636c1.378 1.466 4.632 2.732 8.077 3.14 1.97.235 1.83.335 4.261-3.067zm-13.664-12.22c2.67-4.485 2.934-5.658 2.445-10.838-1.02-10.817-6.298-20.013-14.738-25.676-6.018-4.039-12.402-5.654-19.469-4.926-2.813.29-6.159 1.063-6.628 1.531-.311.312.28 3.273 1.501 7.516 3.215 11.17 8.328 20.186 15.864 27.975 4.636 4.792 8.107 7.447 7.43 5.684-.3-.782-3.87-15.805-5.305-22.318-.817-3.711-1.548-6.956-1.625-7.21-.352-1.177.586-.188 2.76 2.91 5.25 7.48 9.062 14.426 11.94 21.762.886 2.256 1.847 4.61 2.135 5.233.289.622.525 1.283.525 1.468 0 .453.592 1.023.803.774.093-.11 1.156-1.857 2.362-3.884z"/><path style="display:inline;fill:#fff;stroke-width:.143729;stroke-linecap:square" d="M116.789 35.222c-1.63-1.78-5.152-8.165-7.376-13.373-1.816-4.253-3.93-11.617-3.589-12.505.302-.786 3.214-1.228 8.02-1.217 4.195.009 5.556.169 7.705.907 1.93.662 3.647 1.847 5.844 4.032 2.369 2.356 5.64 6.459 5.368 6.731-.04.04-1.247-.72-2.683-1.688-2.762-1.86-6.34-3.714-8.375-4.338-1.152-.352-4.578-.682-7.228-.696l-.941-.004.102 3.274c.116 3.727.3 4.77 2.384 13.575.682 2.879 1.218 5.342 1.191 5.472-.034.166-.161.114-.422-.17zM145.03 60.173c-1.188-.592-1.247-.81-.566-2.126 3.39-6.544 14.168-19.31 24.519-29.036 4.775-4.489 7.852-6.994 8.373-6.82.107.036-2.273 2.58-5.288 5.652-11.94 12.17-15.855 17.078-22.34 28.011-1.282 2.16-2.508 4.104-2.726 4.322-.492.493-.979.492-1.973-.003zM171.214 47.167c0-.274 1.847-2.787 3.571-4.86 2.056-2.47 6.681-7.207 8.026-8.218 2.705-2.034 8.935-4.424 14.432-5.536 6.279-1.27 14.09-1.41 19.922-.358 1.552.28 2.776.836 2.484 1.128-.09.089-2.91.28-6.267.424-8.314.357-11.017.698-15.294 1.929-9.592 2.76-15.627 6.095-23.993 13.254-2.769 2.37-2.881 2.457-2.881 2.237z"/><path style="fill:#fff;stroke-width:.105488;stroke-linecap:square" d="M65.748 114.307c-1.32-.66-2.154-1.838-2.3-3.245-.084-.817.431-2.452 1.625-5.155 2.731-6.184 6.062-11.064 10.79-15.807 5.8-5.82 11.385-9.347 19.404-12.254 3.678-1.333 5.178-1.52 6.574-.824 3.051 1.525 2.975 5.98-.13 7.564-.3.154-1.5.621-2.665 1.039-7.436 2.666-12.625 5.909-17.891 11.181-4.187 4.192-6.46 7.506-8.965 13.072-1.133 2.517-1.787 3.633-2.375 4.051-.76.541-1.446.761-2.38.764-.759.002-1.036-.061-1.687-.386z"/><ellipse style="display:inline;fill:#fc7317;fill-opacity:1;stroke-width:.212039;stroke-linecap:square" cx="119.722" cy="130.462" rx="11.382" ry="11.355"/><path style="fill:#fff;stroke-width:.105488;stroke-linecap:square" d="M109.583 130.079c-.533-.854.307-3.775 1.645-5.72.846-1.228 2.994-3.14 4.249-3.78 1.868-.955 3.945-.64 3.945.597 0 .601-.553 1.114-2.123 1.968-2.713 1.476-4.05 2.84-5.497 5.616-.664 1.272-.965 1.573-1.572 1.573-.348 0-.533-.073-.647-.254zM68.762 47.265c-.965-1.353-2.245-3.537-3.034-5.18-1.83-3.81-1.973-5.352-.688-7.467 1.521-2.504 4.933-5.458 8.175-7.08 2.534-1.267 2.998-1.211.865.105-1.674 1.032-3.675 2.663-5.161 4.204-2.185 2.266-2.72 3.387-2.719 5.688.003 2.231.55 4.191 2.234 7.99.558 1.258.993 2.35.967 2.428-.026.077-.314-.232-.639-.688z"/></g></svg>
